<svg width="14" height="14" viewBox="0 0 14 14" fill="none" xmlns="http://www.w3.org/2000/svg">
<g id="call-answer" clip-path="url(#clip0_3_31)">
<g id="Group">
<g id="Group_2">
<g id="Group_3">
<path id="Vector" d="M13.6861 11.0641L11.524 8.90183C11.0934 8.47291 10.3802 8.48594 9.93459 8.93175L8.84533 10.0208C8.77651 9.98285 8.70528 9.94323 8.63039 9.9012C7.94253 9.52006 7.00108 8.99767 6.01039 8.00627C5.01678 7.01277 4.4939 6.06987 4.1116 5.38157C4.07126 5.30865 4.03261 5.23834 3.99444 5.17157L4.72549 4.4416L5.08491 4.08174C5.53124 3.63529 5.54355 2.92233 5.11391 2.49217L2.95183 0.329609C2.52219 -0.0999508 1.80871 -0.0869192 1.36238 0.359534L0.753031 0.972381L0.769682 0.988912C0.56536 1.24962 0.394622 1.55032 0.267564 1.87458C0.15044 2.18323 0.0775198 2.47777 0.0441766 2.77291C-0.241312 5.13968 0.84023 7.30272 3.7754 10.2379C7.83268 14.2949 11.1023 13.9885 11.2434 13.9735C11.5506 13.9368 11.845 13.8634 12.1442 13.7472C12.4657 13.6216 12.7661 13.4511 13.0267 13.2472L13.04 13.259L13.6573 12.6546C14.1027 12.2082 14.1156 11.495 13.6861 11.0641Z" fill="#FAFAFA"/>
</g>
</g>
</g>
</g>
<defs>
<clipPath id="clip0_3_31">
<rect width="14" height="14" fill="white"/>
</clipPath>
</defs>
</svg>
