<svg width="15" height="15" viewBox="0 0 15 15" fill="none" xmlns="http://www.w3.org/2000/svg">
<g id="envelope" clip-path="url(#clip0_3_24)">
<g id="Group">
<g id="Group_2">
<path id="Vector" d="M1.4397 5.23998C1.62945 5.37387 2.20142 5.77155 3.15564 6.43279C4.1099 7.09404 4.84092 7.60318 5.34874 7.96025C5.40453 7.99939 5.52307 8.08447 5.7044 8.21561C5.88576 8.34684 6.03646 8.45288 6.15637 8.53377C6.27637 8.61463 6.42144 8.70534 6.59172 8.80576C6.76194 8.90608 6.9224 8.98155 7.07307 9.03151C7.22376 9.08188 7.36326 9.10683 7.49159 9.10683H7.5H7.50844C7.63677 9.10683 7.77632 9.08185 7.92702 9.03151C8.07763 8.98155 8.23823 8.90599 8.40831 8.80576C8.57847 8.70522 8.72354 8.6146 8.84354 8.53377C8.96354 8.45288 9.11412 8.34684 9.29554 8.21561C9.47684 8.08435 9.59552 7.99939 9.65132 7.96025C10.1646 7.60318 11.4705 6.69633 13.5687 5.2398C13.976 4.95533 14.3164 4.61207 14.5897 4.21026C14.8633 3.80863 15 3.3873 15 2.9465C15 2.57814 14.8674 2.26282 14.6023 2.00057C14.3372 1.73826 14.0233 1.60718 13.6607 1.60718H1.33923C0.909571 1.60718 0.578919 1.75224 0.347334 2.04238C0.115778 2.33257 0 2.6953 0 3.13053C0 3.48208 0.153511 3.86304 0.460385 4.27318C0.76723 4.68334 1.09378 5.00564 1.4397 5.23998Z" fill="#FAFAFA"/>
<path id="Vector_2" d="M14.1628 6.13543C12.3327 7.37416 10.943 8.33686 9.99445 9.02331C9.67638 9.2576 9.41835 9.44048 9.22019 9.57154C9.02203 9.70268 8.75848 9.8366 8.42918 9.97326C8.1 10.1101 7.79321 10.1783 7.50856 10.1783H7.50003H7.49161C7.20702 10.1783 6.90006 10.1101 6.57087 9.97326C6.24168 9.8366 5.97797 9.70268 5.77986 9.57154C5.58182 9.44048 5.3237 9.2576 5.00566 9.02331C4.25226 8.4709 2.86557 7.50814 0.84551 6.13543C0.527348 5.92352 0.245541 5.68062 0 5.40723V12.0532C0 12.4218 0.131082 12.7369 0.393393 12.9992C0.655645 13.2616 0.970992 13.3927 1.33932 13.3927H13.6608C14.029 13.3927 14.3443 13.2616 14.6066 12.9992C14.869 12.7368 15 12.4218 15 12.0532V5.40723C14.76 5.67496 14.4811 5.91786 14.1628 6.13543Z" fill="#FAFAFA"/>
</g>
</g>
</g>
<defs>
<clipPath id="clip0_3_24">
<rect width="15" height="15" fill="white"/>
</clipPath>
</defs>
</svg>
