<svg width="19" height="19" viewBox="0 0 19 19" fill="none" xmlns="http://www.w3.org/2000/svg">
<g id="placeholder-for-map" clip-path="url(#clip0_3_19)">
<g id="Group">
<path id="Vector" d="M9.73969 0.0039601C5.88118 -0.126074 2.71249 2.96303 2.71249 6.79217C2.71249 11.1378 6.88283 14.2916 9.22029 18.8271C9.33897 19.0574 9.67047 19.0577 9.78956 18.8275C11.9041 14.7464 15.5182 12.0098 16.188 8.07816C16.8815 4.00967 13.8644 0.14302 9.73969 0.0039601ZM9.50459 10.3499C7.53973 10.3499 5.94684 8.757 5.94684 6.79217C5.94684 4.82735 7.53977 3.23442 9.50459 3.23442C11.4695 3.23442 13.0624 4.82735 13.0624 6.79217C13.0624 8.757 11.4695 10.3499 9.50459 10.3499Z" fill="#FAFAFA"/>
</g>
</g>
<defs>
<clipPath id="clip0_3_19">
<rect width="19" height="19" fill="white"/>
</clipPath>
</defs>
</svg>
